<svg xmlns="http://www.w3.org/2000/svg" viewBox="0 0 1920 1080" preserveAspectRatio="none">
  <g stroke="rgba(26,255,236,0.22)" stroke-width="1.5" stroke-linecap="round">
    <!-- Horizontal lines -->
    <line x1="955.2" y1="379.5" x2="964.8" y2="379.5"/>
    <line x1="941.0" y1="383.8" x2="979.0" y2="383.8"/>
    <line x1="917.2" y1="391.1" x2="1002.8" y2="391.1"/>
    <line x1="883.8" y1="401.2" x2="1036.2" y2="401.2"/>
    <line x1="841.0" y1="414.3" x2="1079.0" y2="414.3"/>
    <line x1="788.6" y1="430.2" x2="1131.4" y2="430.2"/>
    <line x1="726.7" y1="449.1" x2="1193.3" y2="449.1"/>
    <line x1="655.3" y1="470.8" x2="1264.7" y2="470.8"/>
    <line x1="574.4" y1="495.5" x2="1345.6" y2="495.5"/>
    <line x1="484.0" y1="523.0" x2="1436.0" y2="523.0"/>
    <line x1="384.0" y1="553.5" x2="1536.0" y2="553.5"/>
    <line x1="274.5" y1="586.9" x2="1645.5" y2="586.9"/>
    <line x1="155.5" y1="623.1" x2="1764.5" y2="623.1"/>
    <line x1="27.0" y1="662.3" x2="1893.0" y2="662.3"/>
    <line x1="-111.1" y1="704.3" x2="2031.1" y2="704.3"/>
    <line x1="-258.6" y1="749.3" x2="2178.6" y2="749.3"/>
    <line x1="-415.7" y1="797.2" x2="2335.7" y2="797.2"/>
    <line x1="-582.3" y1="847.9" x2="2502.3" y2="847.9"/>
    <line x1="-758.5" y1="901.6" x2="2678.5" y2="901.6"/>
    <line x1="-944.1" y1="958.2" x2="2864.1" y2="958.2"/>
    <line x1="-1139.3" y1="1017.6" x2="3059.3" y2="1017.6"/>
    <line x1="-1344.0" y1="1080.0" x2="3264.0" y2="1080.0"/>
    <!-- Radial lines -->
    <line x1="960.0" y1="378" x2="-1344.0" y2="1080"/>
    <line x1="960.0" y1="378" x2="-1200.0" y2="1080"/>
    <line x1="960.0" y1="378" x2="-1056.0" y2="1080"/>
    <line x1="960.0" y1="378" x2="-912.0" y2="1080"/>
    <line x1="960.0" y1="378" x2="-768.0" y2="1080"/>
    <line x1="960.0" y1="378" x2="-624.0" y2="1080"/>
    <line x1="960.0" y1="378" x2="-480.0" y2="1080"/>
    <line x1="960.0" y1="378" x2="-336.0" y2="1080"/>
    <line x1="960.0" y1="378" x2="-192.0" y2="1080"/>
    <line x1="960.0" y1="378" x2="-48.0" y2="1080"/>
    <line x1="960.0" y1="378" x2="96.0" y2="1080"/>
    <line x1="960.0" y1="378" x2="240.0" y2="1080"/>
    <line x1="960.0" y1="378" x2="384.0" y2="1080"/>
    <line x1="960.0" y1="378" x2="528.0" y2="1080"/>
    <line x1="960.0" y1="378" x2="672.0" y2="1080"/>
    <line x1="960.0" y1="378" x2="816.0" y2="1080"/>
    <line x1="960.0" y1="378" x2="960.0" y2="1080"/>
    <line x1="960.0" y1="378" x2="1104.0" y2="1080"/>
    <line x1="960.0" y1="378" x2="1248.0" y2="1080"/>
    <line x1="960.0" y1="378" x2="1392.0" y2="1080"/>
    <line x1="960.0" y1="378" x2="1536.0" y2="1080"/>
    <line x1="960.0" y1="378" x2="1680.0" y2="1080"/>
    <line x1="960.0" y1="378" x2="1824.0" y2="1080"/>
    <line x1="960.0" y1="378" x2="1968.0" y2="1080"/>
    <line x1="960.0" y1="378" x2="2112.0" y2="1080"/>
    <line x1="960.0" y1="378" x2="2256.0" y2="1080"/>
    <line x1="960.0" y1="378" x2="2400.0" y2="1080"/>
    <line x1="960.0" y1="378" x2="2544.0" y2="1080"/>
    <line x1="960.0" y1="378" x2="2688.0" y2="1080"/>
    <line x1="960.0" y1="378" x2="2832.0" y2="1080"/>
    <line x1="960.0" y1="378" x2="2976.0" y2="1080"/>
    <line x1="960.0" y1="378" x2="3120.0" y2="1080"/>
    <line x1="960.0" y1="378" x2="3264.0" y2="1080"/>
  </g>
</svg>
